<?xml version="1.0" standalone="no"?>
<!DOCTYPE svg PUBLIC "-//W3C//DTD SVG 20010904//EN"
 "http://www.w3.org/TR/2001/REC-SVG-20010904/DTD/svg10.dtd">
<svg version="1.0" xmlns="http://www.w3.org/2000/svg"
 width="909.000000pt" height="909.000000pt" viewBox="0 0 909.000000 909.000000"
 preserveAspectRatio="xMidYMid meet">
<metadata>
Created by potrace 1.14, written by Peter Selinger 2001-2017
</metadata>
<g transform="translate(0.000000,909.000000) scale(0.100000,-0.100000)"
fill="#000000" stroke="none">
<path d="M4260 9079 c-1280 -77 -2478 -704 -3281 -1719 -393 -496 -685 -1087
-837 -1696 -286 -1141 -129 -2328 443 -3347 574 -1023 1544 -1797 2665 -2128
1180 -348 2450 -207 3508 387 637 358 1167 849 1566 1449 703 1058 931 2316
646 3555 -193 833 -630 1609 -1247 2211 -929 906 -2164 1366 -3463 1288z m435
-1714 c201 -292 303 -438 650 -925 663 -930 793 -1127 956 -1451 356 -711 417
-1273 193 -1768 -89 -196 -173 -302 -473 -601 -315 -314 -416 -392 -641 -498
-509 -239 -1124 -221 -1668 48 -231 114 -414 245 -643 460 -312 293 -490 595
-569 965 -27 128 -38 410 -21 552 50 405 234 840 531 1253 38 52 180 226 315
385 641 753 877 1098 1109 1623 49 111 93 199 97 195 4 -5 78 -111 164 -238z"/>
<path d="M4509 7078 c-201 -402 -439 -736 -949 -1336 -295 -347 -358 -427
-455 -572 -199 -299 -327 -590 -391 -888 -38 -172 -44 -431 -16 -597 27 -155
69 -282 144 -426 82 -160 191 -301 350 -454 229 -220 385 -333 613 -445 231
-114 429 -169 679 -191 388 -33 811 91 1101 323 27 22 113 104 190 182 77 77
178 177 224 221 487 464 545 1070 180 1867 -168 368 -316 595 -1109 1708 -202
283 -397 559 -434 613 -37 53 -69 97 -72 97 -2 0 -27 -46 -55 -102z"/>
</g>
</svg>
